<?xml version="1.0" standalone="no"?>
<!DOCTYPE svg PUBLIC "-//W3C//DTD SVG 1.1//EN" "http://www.w3.org/Graphics/SVG/1.1/DTD/svg11.dtd" >
<svg xmlns="http://www.w3.org/2000/svg">
<metadata>
Created by FontForge 20120731 at Wed May  3 13:12:19 2017
 By admin
</metadata>
<defs>
<font id="iconfont" horiz-adv-x="1024" >
  <font-face 
    font-family="iconfont"
    font-weight="500"
    font-stretch="normal"
    units-per-em="1024"
    panose-1="2 0 6 3 0 0 0 0 0 0"
    ascent="896"
    descent="-128"
    x-height="792"
    bbox="0 -159 1160 896"
    underline-thickness="0"
    underline-position="0"
    unicode-range="U+0078-E76B"
  />
<missing-glyph 
 />
    <glyph glyph-name=".notdef" 
 />
    <glyph glyph-name=".notdef" 
 />
    <glyph glyph-name=".null" horiz-adv-x="0" 
 />
    <glyph glyph-name="nonmarkingreturn" horiz-adv-x="341" 
 />
    <glyph glyph-name="x" unicode="x" horiz-adv-x="1001" 
d="M281 543q-27 -1 -53 -1h-83q-18 0 -36.5 -6t-32.5 -18.5t-23 -32t-9 -45.5v-76h912v41q0 16 -0.5 30t-0.5 18q0 13 -5 29t-17 29.5t-31.5 22.5t-49.5 9h-133v-97h-438v97zM955 310v-52q0 -23 0.5 -52t0.5 -58t-10.5 -47.5t-26 -30t-33 -16t-31.5 -4.5q-14 -1 -29.5 -0.5
t-29.5 0.5h-32l-45 128h-439l-44 -128h-29h-34q-20 0 -45 1q-25 0 -41 9.5t-25.5 23t-13.5 29.5t-4 30v167h911zM163 247q-12 0 -21 -8.5t-9 -21.5t9 -21.5t21 -8.5q13 0 22 8.5t9 21.5t-9 21.5t-22 8.5zM316 123q-8 -26 -14 -48q-5 -19 -10.5 -37t-7.5 -25t-3 -15t1 -14.5
t9.5 -10.5t21.5 -4h37h67h81h80h64h36q23 0 34 12t2 38q-5 13 -9.5 30.5t-9.5 34.5q-5 19 -11 39h-368zM336 498v228q0 11 2.5 23t10 21.5t20.5 15.5t34 6h188q31 0 51.5 -14.5t20.5 -52.5v-227h-327z" />
    <glyph glyph-name="set" unicode="&#xe602;" 
d="M995 268q3 -12 -0.5 -29.5t-10.5 -35t-17 -32t-22.5 -20.5t-21.5 -6t-21 4q-10 3 -25.5 5.5t-31 1t-31.5 -6.5t-27 -18q-25 -25 -29 -58t9 -63q10 -20 -3 -41q-6 -8 -19.5 -16.5t-29 -15.5t-33 -11.5t-31.5 -4.5q-9 0 -17 7.5t-11 15.5h-1q-12 32 -39 55t-63 23
q-34 0 -62.5 -23t-39.5 -54q-5 -12 -15.5 -18t-22.5 -6q-14 0 -32 5.5t-36 13t-32.5 17.5t-21.5 21q-5 7 -5.5 16.5t7.5 27.5q12 23 9 53.5t-26 55.5q-14 16 -34.5 20.5t-39.5 3.5q-21 -1 -44 -8q-14 -4 -29 2q-11 4 -20.5 18.5t-17.5 32.5t-12 37t-2 31q3 23 21 29
q30 12 55 40.5t25 63.5t-25 62t-55 39q-10 3 -16 15t-6 24q0 13 4 29.5t11 32t15.5 28t18.5 18.5q9 6 16.5 4.5t16.5 -4.5q31 -12 64 -7.5t59 29.5q12 12 18 30t7.5 35.5t0 32t-2.5 20.5q-3 6 -4.5 14t1.5 14q7 15 22.5 25.5t34 17.5t36 11t27.5 4q14 0 21.5 -9t10.5 -18
q11 -28 36.5 -49t60.5 -21q36 0 63.5 20t39.5 51q4 8 12.5 17t17.5 9q15 0 32 -4.5t33 -11.5t30 -18t22 -25q5 -8 3 -17.5t-4 -13.5q-13 -30 -8 -63t29.5 -57.5t60.5 -27t67 11.5q8 6 19.5 4.5t20.5 -9.5q15 -14 26.5 -43t16.5 -59q2 -18 -6 -27.5t-16 -12.5
q-32 -11 -54.5 -39.5t-22.5 -63.5t19 -61.5t50 -37.5q7 -4 12 -8q11 -9 15 -24zM519 176q46 0 87 17.5t71.5 48.5t48 71t17.5 86.5t-17.5 87t-48 70.5t-71.5 47.5t-87 17.5t-86.5 -17.5t-70.5 -47.5t-47.5 -70.5t-17.5 -87t17.5 -86.5t47.5 -71t70.5 -48.5t86.5 -17.5z" />
    <glyph glyph-name="right-arrow2" unicode="&#xe600;" horiz-adv-x="1000" 
d="M607 39l312 313q18 18 18 44t-18 44l-312 313q-19 18 -44.5 18t-44 -18.5t-18.5 -44t18 -44.5l206 -206h-599q-26 0 -44 -18t-18 -44t18 -44t44 -18h599l-206 -206q-18 -19 -18 -44.5t18.5 -44t44 -18.5t44.5 18v0z" />
    <glyph glyph-name="roundcheckfill" unicode="&#xe656;" 
d="M512 830q-91 0 -173.5 -35.5t-142 -95t-95 -142t-35.5 -173.5t35.5 -173.5t95 -142t142 -95t173.5 -35.5t173.5 35.5t142 95t95 142t35.5 173.5t-35.5 173.5t-95 142t-142 95t-173.5 35.5zM727 458l-256 -259v-1v0q-2 -1 -7 -4q-1 -1 -2 -1.5t-2 -1.5q-6 -2 -12 -2t-12 2
q-1 1 -2 1.5t-1 1.5q-6 3 -7 4v1h-1l-126 129q-9 10 -9 23t9.5 22.5t23 9t22.5 -9.5l103 -106l234 236q9 9 22.5 9t22.5 -9t9.5 -22.5t-9.5 -22.5z" />
    <glyph glyph-name="roundcheck" unicode="&#xe657;" 
d="M512 -64q-185 0 -316.5 131.5t-131.5 316.5t131.5 316.5t316.5 131.5t316.5 -131.5t131.5 -316.5t-131.5 -316.5t-316.5 -131.5zM512 768q-104 0 -192.5 -51.5t-140 -140t-51.5 -192.5t51.5 -192.5t140 -140t192.5 -51.5t192.5 51.5t140 140t51.5 192.5t-51.5 192.5
t-140 140t-192.5 51.5zM727 502.5q-9 9.5 -22.5 9.5t-22.5 -9l-234 -236l-103 106q-9 9 -22.5 9.5t-23 -9t-9.5 -22.5t9 -23l126 -129h1v-1q1 -1 7 -4q0 -1 1 -1.5t2 -1.5q6 -2 12 -2t12 2q1 1 2 1.5t2 1.5q5 3 7 4v0v1l256 259q10 9 9.5 22t-9.5 22.5z" />
    <glyph glyph-name="phone" unicode="&#xe647;" 
d="M703 835h-382q-43 0 -73.5 -30.5t-30.5 -73.5v-693q0 -43 30.5 -73.5t73.5 -30.5h382q43 0 73.5 30.5t30.5 73.5v693q0 43 -30.5 73.5t-73.5 30.5zM477 800h70q7 0 12 -5t5 -12t-5 -12t-12 -5h-70q-7 0 -12 5t-5 12t5 12t12 5zM512 -24q-18 0 -31 13t-13 31.5t13 31.5
t31 13t31 -13t13 -31.5t-13 -31.5t-31 -13zM737 124q0 -7 -5 -12t-12 -5h-416q-7 0 -12 5t-5 12v590q0 7 5 12t12 5h416q7 0 12 -5t5 -12v-590z" />
    <glyph glyph-name="search-index" unicode="&#xe66b;" 
d="M24 895zM47 895zM70 895zM94 895zM117 895zM140 895zM163 895zM187 895zM210 895zM233 895zM256 895zM280 895zM303 895zM326 895zM349 895zM373 895zM396 895zM419 895zM442 895zM466 895zM489 895zM512 895zM535 895zM558 895zM582 895zM605 895zM628 895zM651 895z
M675 895zM698 895zM721 895zM744 895zM768 895zM791 895zM814 895zM837 895zM861 895zM884 895zM907 895zM930 895zM954 895zM977 895zM1000 895zM1 872zM1 849zM1 826zM1 802zM1 779zM1 756zM1 733zM1 709zM1 686zM1 663zM1 640zM1 616zM1 593zM1 570zM1 547zM1 523zM1 500
zM1 477zM1 454zM1 430zM1 407zM1 384zM1 361zM1 338zM1 314zM1 291zM1 268zM1 245zM1 221zM1 198zM1 175zM1 152zM1 128zM1 105zM1 82zM1 59zM1 35zM1 12zM1 -11zM1 -34zM1 -58zM1 -81zM1 -104zM1023 -34q0 -26 -9.5 -45.5t-23 -28t-27.5 -13.5t-23 -6h-10l-266 266
q-110 -80 -245 -80q-114 0 -210 56t-152 152t-56 210t56 210t152 152t210 56t210 -56t152 -152t56 -210q0 -135 -80 -245zM419 802q-88 0 -163 -43.5t-118.5 -118.5t-43.5 -163t43.5 -163t118.5 -118.5t163 -43.5t163 43.5t118.5 118.5t43.5 163t-43.5 163t-118.5 118.5
t-163 43.5z" />
    <glyph glyph-name="del" unicode="&#xe64c;" 
d="M621 -4q10 0 17.5 11.5t7.5 26.5v444q0 16 -7.5 27t-17.5 11h-23q-11 0 -18 -11t-7 -27v-444q0 -15 7 -26.5t18 -11.5h23zM426 -4q10 0 17 11.5t7 26.5v444q0 16 -7 27t-17 11h-24q-10 0 -17.5 -11t-7.5 -27v-444q0 -15 7.5 -26.5t17.5 -11.5h24zM841 550h-43
q-14 0 -24 -9.5t-10 -23.5v-564h-504v567q0 12 -9 21t-22 9h-49q-13 0 -22 -9t-9 -21v-604v-3v-32q0 -17 11.5 -28.5t27.5 -11.5h647q16 0 28 11.5t12 28.5v28v7v601q0 14 -10 23.5t-24 9.5zM891 681h-296v22q0 14 -9.5 23.5t-22.5 9.5h-102q-14 0 -23.5 -9.5t-9.5 -23.5
v-22h-295q-17 0 -29 -12t-12 -28v-31q0 -17 12 -29t29 -12h758q16 0 28 12t12 29v31q0 16 -12 28t-28 12z" />
    <glyph glyph-name="triangle" unicode="&#xe6c3;" 
d="M49 671l429 -622l506 622h-935z" />
    <glyph glyph-name="edit" unicode="&#xe612;" 
d="M902 -5q0 -24 -17 -41t-41 -17h-663q-24 0 -41 17t-17 41v779q0 24 17 41t41 17h663q24 0 41 -17t17 -41v-779zM863 735q0 24 -17 41t-41 17h-585q-24 0 -41 -17t-17 -41v-701q0 -24 17 -41t41 -17h585q24 0 41 17t17 41v701zM766 658q0 8 -5 13t-12 5h-453q-7 0 -12 -5
t-5 -13v-3q0 -7 5 -12t12 -5h453q7 0 12 5t5 12v3zM766 522q0 7 -5 12t-12 5h-453q-7 0 -12 -5t-5 -12v-3q0 -7 5 -12t12 -5h453q7 0 12 5t5 12v3zM766 405q0 7 -5 12.5t-12 5.5h-453q-7 0 -12 -5.5t-5 -12.5v-3q0 -7 5 -12t12 -5h453q7 0 12 5t5 12v3zM433 289q0 7 -5 12
t-13 5h-119q-7 0 -12 -5t-5 -12v-3q0 -7 5 -12t12 -5h119q8 0 13 5t5 12v3zM746 311l-15 15q-10 10 -22.5 10.5t-21.5 -7.5l-175 -175l62 -62l175 175q8 9 7.5 21.5t-10.5 22.5zM493 134v-61h61h1z" />
    <glyph glyph-name="refresh" unicode="&#xe69c;" 
d="M914 345q-7 3 -14 0.5t-11 -8.5l-2 -10v0q-3 -82 -41 -154q-34 -67 -91 -114t-123.5 -68t-140.5 -15.5t-140.5 39.5t-113.5 91.5t-68 123.5t-16 140t40 141q47 91 132.5 143.5t183.5 54.5v37q-108 -2 -202.5 -60t-146.5 -158q-38 -74 -44 -155t17.5 -154t75.5 -136
t125 -101t154 -43.5t154 17.5t136 75t101 125q41 79 45 168v4q0 11 -10 17zM509 625l124 102l-124 103v-121v-84z" />
    <glyph glyph-name="share" unicode="&#xe6a4;" 
d="M800 256q-68 0 -115 -49l-180 90q7 30 7 55q0 36 -14 75l199 124q45 -39 103 -39q66 0 113 47t47 113t-47 113t-113 47t-113 -47t-47 -113q0 -18 6 -40l-198 -123q-66 67 -160 67q-93 0 -158.5 -65.5t-65.5 -158.5t65.5 -158.5t158.5 -65.5q52 0 97 22.5t76 61.5l181 -91
q-2 -17 -2 -25q0 -66 47 -113t113 -47t113 47t47 113t-47 113t-113 47zM800 256q-68 0 -115 -49l-180 90q7 30 7 55q0 36 -14 75l199 124q45 -39 103 -39q66 0 113 47t47 113t-47 113t-113 47t-113 -47t-47 -113q0 -18 6 -40l-198 -123q-66 67 -160 67q-93 0 -158.5 -65.5
t-65.5 -158.5t65.5 -158.5t158.5 -65.5q52 0 97 22.5t76 61.5l181 -91q-2 -17 -2 -25q0 -66 47 -113t113 -47t113 47t47 113t-47 113t-113 47z" />
    <glyph glyph-name="return" unicode="&#xe614;" 
d="M970 -10q-1 -3 -3 -6.5t-7.5 -4t-11.5 10.5q-2 5 -5.5 14.5t-16 37.5t-27.5 54.5t-40 61t-52 62t-65 53t-78.5 39t-92.5 13.5t-107 -17v-132q-1 -3 -1.5 -8t-5 -15.5t-12 -16t-22 -3.5t-33.5 16l-337 291l-7.5 5t-13 12.5t-10.5 19.5t6 25.5t29 30.5l341 293q2 1 5.5 3.5
t13 5.5t17.5 2t16 -9.5t12 -24.5v-143h1q110 -6 225 -55q240 -103 289 -334q26 -124 -7 -281z" />
    <glyph glyph-name="markfill" unicode="&#xe730;" 
d="M512 789q-121 0 -224.5 -51.5t-163.5 -140t-60 -192.5q0 -137 100.5 -242.5t256.5 -132.5l65 -91q10 -14 26 -14t26 14l65 91q156 27 256.5 132.5t100.5 242.5q0 104 -60 192.5t-163.5 140t-224.5 51.5zM288.5 341q-26.5 0 -45.5 19t-19 45.5t19 45t45.5 18.5t45 -18.5
t18.5 -45t-18.5 -45.5t-45 -19zM512.5 341q-26.5 0 -45.5 19t-19 45.5t19 45t45.5 18.5t45 -18.5t18.5 -45t-18.5 -45.5t-45 -19zM736.5 341q-26.5 0 -45.5 19t-19 45.5t19 45t45.5 18.5t45 -18.5t18.5 -45t-18.5 -45.5t-45 -19z" />
    <glyph glyph-name="mark" unicode="&#xe731;" 
d="M512 -32q-16 0 -26 13l-65 91q-156 28 -256.5 133.5t-100.5 242.5q0 159 131.5 271.5t316.5 112.5t316.5 -112.5t131.5 -271.5q0 -137 -100.5 -242.5t-256.5 -133.5l-65 -91q-10 -13 -26 -13zM512 768q-159 0 -271.5 -94t-112.5 -226q0 -116 89.5 -205t226.5 -110
q13 -2 21 -13l47 -65l47 65q7 11 21 13q137 21 226.5 110t89.5 205q0 132 -112.5 226t-271.5 94zM288.5 384q-26.5 0 -45.5 19t-19 45t19 45t45.5 19t45 -19t18.5 -45t-18.5 -45t-45 -19zM288 448v0v-32v32zM736.5 384q-26.5 0 -45.5 19t-19 45t19 45t45.5 19t45 -19
t18.5 -45t-18.5 -45t-45 -19zM736 448v0v-32v32zM512.5 384q-26.5 0 -45.5 19t-19 45t19 45t45.5 19t45 -19t18.5 -45t-18.5 -45t-45 -19zM512 448v0v-32v32z" />
    <glyph glyph-name="right-arrow" unicode="&#xe60c;" 
d="M192 416h469v-92h-469v92zM831 370l-171 -176v353z" />
    <glyph glyph-name="favorite" unicode="&#xe605;" horiz-adv-x="1048" 
d="M524 872l147 -314l329 -50l-238 -244l56 -344l-294 162l-294 -162l56 344l-238 244l329 50z" />
    <glyph glyph-name="plus" unicode="&#xe603;" 
d="M800 320h-256v256q0 14 -9 23t-23 9t-23 -9t-9 -23v-256h-256q-14 0 -23 -9t-9 -23t9 -23t23 -9h256v-256q0 -14 9 -23t23 -9t23 9t9 23v256h256q14 0 23 9t9 23t-9 23t-23 9zM806 314h-268v268q0 10 -8 18t-18 8t-18 -8t-8 -18v-268h-268q-10 0 -18 -8t-8 -18t8 -18
t18 -8h268v-268q0 -10 8 -18t18 -8t18 8t8 18v268h268q10 0 18 8t8 18t-8 18t-18 8z" />
    <glyph glyph-name="search" unicode="&#xe608;" 
d="M137 84l60 -63l260 289l-40 37zM887 555q-1 5 -2 13t-8 32t-17 46t-29.5 48.5t-44 45t-63.5 30.5t-86 10q-34 -1 -64.5 -8t-52.5 -18t-40.5 -26t-30.5 -30.5t-21.5 -34t-14.5 -34t-9 -32t-5 -27t-2 -20.5t-1 -11q-1 -8 2.5 -30t7.5 -40l4 -18q2 -6 6.5 -16t24 -37.5
t45.5 -51.5q26 -23 62 -37t59 -16l23 -2h12.5t29.5 3t43 9.5t48.5 21t48.5 34.5q77 72 75 196zM768 404q-26 -24 -60 -36.5t-55 -13.5l-21 -1q-7 1 -19 2t-40.5 11.5t-48 28t-33.5 37t-19 30.5l-4 11q-2 6 -4 15t-5 27t-2 24l0.5 7.5t1.5 15.5t4 20.5t6.5 24t11 25t16.5 25
t22.5 23t30 20t39 13.5t48.5 6q35 1 64 -7.5t47.5 -23.5t33 -33t22 -36.5t12.5 -33.5t6 -25l2 -9q3 -79 -44 -134q-6 -7 -12 -13z" />
    <glyph glyph-name="right-circle" unicode="&#xe61f;" 
d="M835.5 707.5q-64.5 64.5 -147.5 99t-174.5 34.5t-175 -34.5t-148 -99t-99 -147.5t-34.5 -174.5t34.5 -174.5t99 -148t148 -99.5t175 -34.5t174.5 34.5t147.5 99t99 148t34.5 175t-34.5 174.5t-99 147.5zM513.5 -23q-110.5 0 -204.5 55t-149 149t-55 204.5t55 204.5
t149 148.5t204.5 54.5t204.5 -54.5t148.5 -148.5t54.5 -204.5t-54.5 -204.5t-148.5 -149t-204.5 -55zM439 172q-8 0 -13.5 6t-5.5 14t5 14l184 184l-184 183q-5 6 -5 14t5.5 14t14 6t13.5 -6l198 -198q6 -5 6 -13.5t-6 -13.5l-198 -198q-5 -6 -14 -6v0z" />
    <glyph glyph-name="duihao" unicode="&#xe65b;" 
d="M138 332l314 -272l470 542l-147 127l-343 -395l-179 156z" />
    <glyph glyph-name="search-user" unicode="&#xe60a;" 
d="M838 104q16 28 20 60q8 65 -32.5 117t-106 60t-117.5 -32.5t-60 -105.5t32.5 -117t106.5 -60q57 -7 106 25l66 -59l49 55zM795 171.5q-5 -39.5 -36 -64t-70.5 -19.5t-64 36.5t-19.5 71t36 64t70.5 19.5t64 -36.5t19.5 -71zM192 96q0 119 84.5 203.5t203.5 84.5
q58 0 111 -22l75 33q-41 26 -88 39q62 57 62 142q0 79 -56 135t-135.5 56t-135.5 -56t-56 -135q0 -48 22 -89.5t60 -68.5q-95 -41 -153 -128t-58 -194v-96h384v64h-320v32zM448 704q53 0 90.5 -37.5t37.5 -90.5t-37.5 -90.5t-90.5 -37.5t-90.5 37.5t-37.5 90.5t37.5 90.5
t90.5 37.5z" />
    <glyph glyph-name="duihao1" unicode="&#xe60f;" 
d="M512 -128q-139 0 -257 68.5t-186.5 186.5t-68.5 257t68.5 257t186.5 186.5t257 68.5t257 -68.5t186.5 -186.5t68.5 -257t-68.5 -257t-186.5 -186.5t-257 -68.5zM811 541q-14 14 -34 14t-34 -14l-271 -269l-135 134q-14 14 -34 14t-34 -14t-14 -33.5t14 -33.5l170 -168
q14 -14 33.5 -14t33.5 14l305 303q14 14 14 33.5t-14 33.5z" />
    <glyph glyph-name="envelope-open" unicode="&#xe609;" 
d="M956 556l-69 53v64q-1 30 -23 52l-91 85q-23 19 -52 20h-141l-19 15h-1q-21 14 -48 14t-48 -14h-1l-20 -15h-264q-17 0 -29.5 -12t-12.5 -30v-181l-83 -60v-1q-24 -20 -24 -51v-518q0 -28 19.5 -48t48.5 -20h829q28 0 47.5 20t19.5 48v518q0 19 -10.5 35.5t-27.5 25.5z
M887 533l10 -9l-10 -6v15zM761 760l56 -52h-53q-3 0 -3 3v49zM176 788q0 4 3 4h542h3q-1 -5 -1 -10v-71q0 -17 12 -29.5t29 -12.5h80q2 0 4 1v-178l-299 -196q-16 8 -37 8t-37 -8l-299 196v296zM137 533v-15l-11 7zM90 476l329 -215l-329 -216v431zM927 -31h-830q-4 0 -6 5
l406 266q5 4 15 4t15 -4l406 -266q-2 -5 -6 -5zM934 45l-329 216l329 215v-431zM748 520h-472v-33h472v33zM748 615h-472v-33h472v33z" />
    <glyph glyph-name="user" unicode="&#xe64a;" 
d="M964 98q-38 98 -112.5 171.5t-171.5 110.5q48 38 75.5 94t27.5 119q0 113 -80 193.5t-193 80.5t-193.5 -80.5t-80.5 -193.5q0 -63 27.5 -118.5t75.5 -94.5q-97 -36 -171 -110t-112 -172l-2 -5v-107q0 -38 27 -64.5t64 -26.5h729q38 0 65 26.5t27 64.5v107zM297 593
q0 88 62.5 150.5t150.5 62.5t150.5 -62.5t62.5 -150.5t-62.5 -150t-150.5 -62t-150.5 62t-62.5 150zM905 -14q0 -13 -9 -22t-22 -9h-729q-12 0 -21 9t-9 22v96q38 97 116.5 165t179.5 92v0q48 -19 99 -19t99 19q100 -24 179 -92.5t117 -164.5v-96z" />
    <glyph glyph-name="usermore" unicode="&#xe626;" horiz-adv-x="1366" 
d="M1151 82q4 -12 6 -32q3 -19 3 -38.5t-3 -35.5q-3 -18 -9 -26q-3 -6 -22 -11q-18 -6 -46 -11q-23 -4 -60 -9q-35 -4 -67 -7q-35 -3 -65 -5q-32 -1 -55 -1t-54 1q-31 2 -64 5q-24 2 -66 6q-32 4 -59 8q-28 4 -45 8q-19 5 -24 8q-7 7 -12 40q-5 34 3 85q5 31 24 46t46 24
q28 10 55 17q28 7 49 21q18 12 26.5 21t13.5 19q4 10 4 20q0 8 -1 24q-2 18 -13 29q-13 12 -25 22q-7 5 -12 15.5t-9 21.5t-7 25q-7 2 -12 6q-4 3 -10 11q-5 8 -10 21q-4 13 -3.5 25t4.5 19q4 10 11 17q-1 31 3 62q3 26 11 55t25 54q16 22 34.5 36.5t38.5 22.5t40 11t38 3
q48 0 86 -20t56 -43q21 -26 31 -57t15 -59q4 -32 3 -65q5 -4 9 -10q3 -6 5 -14.5t1 -22.5q-2 -17 -8 -27q-6 -11 -11 -16q-7 -7 -15 -9q-4 -14 -8 -25t-9.5 -21.5t-12.5 -14.5q-8 -8 -14 -12t-11 -10q-4 -5 -7.5 -11.5t-5.5 -16.5q-2 -12 -1 -25q0 -13 6 -25t18 -24
q13 -11 36 -19q20 -9 44 -15q23 -6 46 -15q23 -8 40.5 -21.5t24.5 -34.5zM646 257q-2 -11 -4 -16q-3 -6 -14 -13q-24 -15 -53 -24q-29 -10 -54 -21q-26 -12 -45.5 -30.5t-24.5 -51.5q-1 -11 -2 -21q0 -7 -1 -18q-2 -3 -2 -4l-2 -3q-43 3 -75 7q-35 3 -70 8q-32 5 -53 10
q-22 4 -28 9q-8 7 -12 40q-5 33 3 86q4 29 24 45t46 25q28 9 54 16q29 8 50 21q17 11 26 21q9 9 13 19t4 21t-1 22q-2 19 -13 30q-12 12 -24 22q-8 5 -13 15.5t-9 20.5q-4 12 -7 26q-6 2 -12 5q-4 4 -10 12q-5 7 -10 21q-4 13 -4 25q2 12 5 20q4 11 11 17q-1 31 2 62
q4 25 12.5 54.5t25.5 52.5q16 23 34.5 37.5t38.5 22.5q19 7 39 11q20 2 39 2q47 0 85 -20q38 -19 57 -42q13 -16 16 -30q4 -16 9 -32q-19 -10 -39 -30q-20 -21 -35 -42q-19 -26 -29 -58q-9 -33 -14 -60q-5 -34 -5 -66q-7 -9 -11 -19t-5 -22q-1 -13 4 -28q5 -16 10 -25
q6 -8 11 -13q6 -6 11 -8q4 -16 8 -28t9 -23q5 -12 13 -18q6 -5 10 -9t6 -7q3 -4 3 -9q0 -6 2 -15v0z" />
    <glyph glyph-name="download" unicode="&#xe686;" 
d="M811 512h-171v256h-256v-256h-171l299 -299zM213 128h598v-85h-598v85z" />
    <glyph glyph-name="xinxifill" unicode="&#xe762;" 
d="M511.5 829q-121.5 0 -224.5 -51.5t-163 -140t-60 -192.5q0 -88 45.5 -166.5t128.5 -135.5l84 -52q-6 -37 -33 -115q-7 -20 8 -35q9 -8 22 -8q7 0 13 3q28 12 57.5 27t70.5 43.5t59 54.5q120 2 221.5 53.5t160.5 139.5t59 191q0 104 -60 192.5t-163.5 140t-225 51.5z
M580 352h-195q-13 0 -22.5 9.5t-9.5 22.5t9.5 22.5t22.5 9.5h195q13 0 22.5 -9.5t9.5 -22.5t-9.5 -22.5t-22.5 -9.5zM641 480h-256q-13 0 -22.5 9.5t-9.5 22.5t9.5 22.5t22.5 9.5h256q13 0 22.5 -9.5t9.5 -22.5t-9.5 -22.5t-22.5 -9.5z" />
    <glyph glyph-name="xinxi" unicode="&#xe763;" 
d="M640 480h-256q-13 0 -22.5 9.5t-9.5 22.5t9.5 22.5t22.5 9.5h256q13 0 22.5 -9.5t9.5 -22.5t-9.5 -22.5t-22.5 -9.5zM579 352h-195q-13 0 -22.5 9.5t-9.5 22.5t9.5 22.5t22.5 9.5h195q13 0 22.5 -9.5t9.5 -22.5t-9.5 -22.5t-22.5 -9.5zM962 448q0 104 -60 192.5t-163 140
t-224.5 51.5t-225 -51.5t-163.5 -140t-60 -192.5q0 -87 45.5 -166t127.5 -135q11 -7 24 -4.5t20.5 13.5t5 24t-13.5 20q-69 47 -107 112t-38 136q0 87 51.5 160.5t140 116.5t192.5 43t192.5 -43t140 -116.5t51.5 -160.5t-51.5 -160.5t-140 -116.5t-192.5 -43q-1 0 -5 -1
q-12 2 -22 -3.5t-14 -16.5q-9 -26 -94 -74q17 58 3 79q-11 16 -30 16q-13 0 -22.5 -9.5t-9.5 -22.5q0 -9 5 -16q-6 -34 -33 -100q-9 -20 7 -35q9 -9 22 -9q7 0 13 3q145 64 188 125q120 2 221 53.5t160 139.5t59 191z" />
    <glyph glyph-name="date" unicode="&#xe607;" 
d="M805 -85h-602q-65 6 -109.5 55t-44.5 115v519q0 71 50 121t120 50h586q71 0 121 -50t50 -121v-519q0 -70 -50 -120t-120 -50h-1zM219 705q-41 0 -71 -29.5t-30 -71.5v-519q0 -42 30 -71.5t71 -29.5h586q42 0 72 29.5t30 71.5v519q0 42 -30 71.5t-72 29.5h-586zM699 605
q-19 0 -33 14t-14 33v159q0 19 14 32.5t33 13.5t32.5 -13.5t13.5 -32.5v-159q0 -19 -13.5 -33t-32.5 -14v0zM316 605q-20 0 -33.5 14t-13.5 33v159q0 19 13.5 32.5t33 13.5t33 -13.5t13.5 -32.5v-159q0 -19 -13.5 -33t-32.5 -14v0zM535 101h-44q-20 0 -33.5 13.5t-13.5 33
t13.5 33t33.5 13.5h44q19 0 32.5 -13.5t13.5 -33t-13.5 -33t-32.5 -13.5v0zM931 443h-810q-19 0 -32.5 14t-13.5 33t13.5 32.5t32.5 13.5h810q19 0 32.5 -13.5t13.5 -32.5t-13.5 -33t-32.5 -14v0zM328 247h-44q-20 0 -33.5 13.5t-13.5 33t13.5 33t33.5 13.5h44
q19 0 32.5 -13.5t13.5 -33t-13.5 -33t-32.5 -13.5v0zM535 247h-44q-20 0 -33.5 13.5t-13.5 33t13.5 33t33.5 13.5h44q19 0 32.5 -13.5t13.5 -33t-13.5 -33t-32.5 -13.5v0zM741 247h-44q-19 0 -32.5 13.5t-13.5 33t13.5 33t32.5 13.5h44q19 0 33 -13.5t14 -33t-14 -33
t-33 -13.5v0zM328 101h-44q-20 0 -33.5 13.5t-13.5 33t13.5 33t33.5 13.5h44q19 0 32.5 -13.5t13.5 -33t-13.5 -33t-32.5 -13.5v0zM741 101h-44q-19 0 -32.5 13.5t-13.5 33t13.5 33t32.5 13.5h44q19 0 33 -13.5t14 -33t-14 -33t-33 -13.5v0z" />
    <glyph glyph-name="userfill" unicode="&#xe60e;" 
d="M511 831q-91 0 -174 -35t-142.5 -95t-95 -143t-35.5 -174t35.5 -174t95 -143t142.5 -95.5t174 -35.5q159 0 282 100l50 48q55 61 85.5 138t30.5 162q0 91 -35.5 174t-95.5 143t-143 95t-174 35zM735 146l-1 1v-1l-446 1v-1q-12 0 -20 8.5t-8 20.5q0 86 51.5 153.5
t131.5 90.5q-33 19 -52 51.5t-19 71.5q0 59 40.5 100.5t98.5 41.5t99 -41.5t41 -100.5q0 -39 -19.5 -71.5t-51.5 -51.5q80 -23 131.5 -90.5t51.5 -153.5q0 -12 -8.5 -20.5t-19.5 -8.5z" />
    <glyph glyph-name="save" unicode="&#xe64b;" 
d="M752 832h-644q-18 0 -31 -13t-13 -31v-808q0 -18 13 -31t31 -13h808q18 0 31 13t13 31v644zM234 609v168h394v-168h-394zM119 777h61v-189q0 -14 10 -24t26 -10h430q15 0 25.5 10t10.5 24v189h47l176 -176v-610h-786v786zM635 411h-408q-12 0 -19.5 -8t-7.5 -19t7.5 -19
t19.5 -8h408q11 0 19 8t8 19t-8 19t-19 8zM635 226h-408q-12 0 -19.5 -8t-7.5 -19.5t7.5 -19.5t19.5 -8h408q11 0 19 8t8 19.5t-8 19.5t-19 8z" />
    <glyph glyph-name="copy" unicode="&#xe6ca;" 
d="M527 12h-346q-15 0 -25.5 10.5t-10.5 25.5v524v4h163q24 0 41.5 17.5t17.5 41.5v162q2 1 4 1h429q15 0 25.5 -10.5t10.5 -25.5v-459q0 -5 3 -8t8 -3t8.5 3t3.5 8v459q0 25 -17.5 42t-41.5 17h-429q-21 0 -44 -23l-184 -184q-22 -22 -22 -42v-524q0 -24 17.5 -41.5
t42.5 -17.5h346q5 0 8.5 3.5t3.5 8.5t-3.5 8t-8.5 3zM344 782v-147q0 -15 -10.5 -25.5t-25.5 -10.5h-147zM698 610h-209q-5 0 -8.5 -3.5t-3.5 -8.5t3.5 -8.5t8.5 -3.5h209q5 0 8.5 3.5t3.5 8.5t-3.5 8.5t-8.5 3.5zM698 433h-404q-5 0 -8.5 -3.5t-3.5 -8.5t3.5 -8t8.5 -3h404
q5 0 8.5 3t3.5 8t-3.5 8.5t-8.5 3.5zM582 257h-288q-5 0 -8.5 -3.5t-3.5 -8t3.5 -8t8.5 -3.5h288q5 0 8.5 3.5t3.5 8t-3.5 8t-8.5 3.5zM891 110h-127v126q0 5 -3.5 8.5t-8.5 3.5t-8 -3.5t-3 -8.5v-126h-128q-5 0 -8 -3.5t-3 -8.5t3 -8.5t8 -3.5h128v-128q0 -5 3 -8t8 -3
t8.5 3t3.5 8v128h127q5 0 8.5 3.5t3.5 8.5t-3.5 8.5t-8.5 3.5z" />
    <glyph glyph-name="user1" unicode="&#xe64d;" 
d="M973 -4q-22 113 -108.5 200t-210.5 122q68 39 108.5 107.5t40.5 149.5q0 122 -86.5 208.5t-209 86.5t-208.5 -86.5t-86 -208.5q0 -81 40 -149.5t108 -107.5q-124 -35 -210 -122t-109 -200q-5 -27 12.5 -49t45.5 -22h815q28 0 46 22t12 49z" />
    <glyph glyph-name="envelope" unicode="&#xe6cd;" 
d="M896 768h-768q-53 0 -90.5 -37.5t-37.5 -90.5v-512q0 -53 37.5 -90.5t90.5 -37.5h768q53 0 90.5 37.5t37.5 90.5v512q0 53 -37.5 90.5t-90.5 37.5zM928 704l-416 -320l-416 320h832zM64 128v512l288 -224l-285 -307q-3 13 -3 19zM114 66l288 307l108 -83l104 83l293 -309
q-789 0 -793 2zM960 128q0 -6 -3 -19l-285 307l288 224v-512z" />
    <glyph glyph-name="refresh2" unicode="&#xe641;" 
d="M945 412v397l-114 -114q-61 64 -143 100t-174 36q-89 0 -171 -35.5t-141 -95.5t-94 -142.5t-35 -173.5t35 -174t94 -143t141 -95t171 -35q125 0 229.5 64.5t161.5 172.5h-165q-43 -47 -101.5 -73.5t-124.5 -26.5q-126 0 -215.5 90.5t-89.5 219t89.5 219t215.5 90.5
q64 0 121 -25t100 -70l-187 -186h397z" />
    <glyph glyph-name="point-xs" unicode="&#xe6a2;" 
d="M381 382q0 53 37.5 90.5t90.5 37.5t90.5 -37.5t37.5 -89.5q0 -54 -37.5 -91.5t-90.5 -37.5t-90.5 37.5t-37.5 90.5z" />
    <glyph glyph-name="control-right" unicode="&#xe678;" 
d="M533 844v-168l305 -290l-305 -290v-169l470 459z" />
    <glyph glyph-name="plus-circle" unicode="&#xe677;" 
d="M512 825q90 0 170.5 -34t142.5 -96v0q61 -61 95 -141.5t34 -170.5t-34 -171t-95 -142l-3 -3q-61 -60 -141 -93.5t-169 -33.5q-90 0 -171 34.5t-142 95.5v0q-61 61 -95 142t-34 171t34 170.5t95 141.5l2 3q61 60 141.5 93.5t169.5 33.5v0zM462 596v0v-164h-164
q-20 0 -34.5 -14.5t-14.5 -34.5q0 -21 14.5 -35.5t34.5 -14.5h164v-164q0 -20 15 -34.5t35 -14.5t34.5 14.5t14.5 34.5v164h165q20 0 34.5 14.5t14.5 35.5q0 20 -14.5 34.5t-34.5 14.5h-165v164q0 21 -14.5 35t-34.5 14q-21 0 -35.5 -14t-14.5 -35v0zM755 626v0
q-47 48 -110 74.5t-133 26.5q-141 0 -241 -99l-3 -2q-47 -48 -74 -111t-27 -132q0 -70 27 -133t74.5 -110.5t110.5 -74.5t133 -27q69 0 131.5 26.5t109.5 72.5l2 3q48 47 74.5 109.5t26.5 133.5q0 70 -26.5 133t-74.5 110v0z" />
    <glyph glyph-name="save2" unicode="&#xe60d;" 
d="M857 -8h-690q-20 0 -33.5 13.5t-13.5 33.5v690q0 20 13.5 33.5t33.5 13.5h611l126 -126v-611q0 -20 -13.5 -33.5t-33.5 -13.5v0zM747 650q0 19 -13.5 33t-33.5 14h-408q-19 0 -33 -14t-14 -33v-141q0 -20 14 -33.5t33 -13.5h408q20 0 33.5 13.5t13.5 33.5v141zM795 399
h-566v-360h566v360zM732 289h-440v32h440v-32zM732 227h-440v31h440v-31zM732 164h-440v31h440v-31zM732 101h-440v32h440v-32zM559 665h94v-172h-94v172z" />
    <glyph glyph-name="triangle-right" unicode="&#xe601;" 
d="M296 896l602 -512l-602 -512v1024z" />
    <glyph glyph-name="zan" unicode="&#xe613;" 
d="M318 782q-104 0 -171 -66q-75 -74 -75 -178.5t75 -178.5q13 -13 89 -96t146 -160l70 -77q23 -23 56.5 -23t57.5 23q302 323 305 326q75 74 75 178.5t-75 178.5q-74 74 -172 74q-86 0 -190 -105q-107 104 -191 104v0z" />
    <glyph glyph-name="password" unicode="&#xe6d4;" 
d="M803 530v79q-1 119 -87 203t-206 84q-121 0 -207 -84.5t-87 -203.5v-78q-55 -5 -93 -45.5t-38 -96.5v-374q0 -59 42 -100.5t100 -41.5h570q58 0 100 41.5t42 100.5v374q0 57 -39.5 98t-96.5 44zM266 608q1 96 73 166t169 70t171 -70t75 -165v-78h-488v77zM895 14
q0 -35 -31.5 -65t-66.5 -30h-570q-35 0 -65.5 30t-30.5 65v374q0 36 25.5 67.5t60.5 31.5h569q36 0 72.5 -32.5t36.5 -66.5v-374zM509.5 386q-48.5 0 -83 -34.5t-34.5 -82.5q0 -57 47 -92v-119q0 -12 8 -20t20 -8h85q12 0 20.5 8t8.5 20v119q46 35 46 92q0 49 -34.5 83
t-83 34zM553 209q-18 -10 -18 -30v-108h-48v108q0 20 -18 30q-32 17 -32 63q0 30 21.5 51t52 21t52 -21t21.5 -51q0 -46 -31 -63v0z" />
    <glyph glyph-name="similar" unicode="&#xe611;" 
d="M454 516q0 -33 -23.5 -56.5t-57.5 -23.5h-284q-34 0 -57.5 23.5t-23.5 56.5v297q0 33 23.5 56.5t57.5 23.5h284q34 0 57.5 -23.5t23.5 -56.5v-297zM454 -41q0 -33 -23.5 -56.5t-57.5 -23.5h-284q-34 0 -57.5 23.5t-23.5 56.5v297q0 33 23.5 57t57.5 24h284q34 0 57.5 -24
t23.5 -57v-297zM1017 516q0 -33 -23.5 -56.5t-56.5 -23.5h-285q-33 0 -56.5 23.5t-23.5 56.5v297q0 33 23.5 56.5t56.5 23.5h285q33 0 56.5 -23.5t23.5 -56.5v-297zM1017 -41q0 -33 -23.5 -56.5t-56.5 -23.5h-285q-33 0 -56.5 23.5t-23.5 56.5v297q0 33 23.5 57t56.5 24h285
q33 0 56.5 -24t23.5 -57v-297z" />
    <glyph glyph-name="project" unicode="&#xe615;" 
d="M638 823v0v-313v0h313v0v313v0h-313v0v0v0zM575 823q0 26 18 44.5t45 18.5h313q26 0 44.5 -18t18.5 -45v-313q0 -26 -18 -44.5t-45 -18.5h-313q-26 0 -44.5 18t-18.5 45v313zM10 823q0 26 18 44.5t45 18.5h313q26 0 44.5 -18t18.5 -45v-313q0 -26 -18 -44.5t-45 -18.5
h-313q-26 0 -44.5 18t-18.5 45v313zM10 258q0 26 18 44.5t45 18.5h313q26 0 44.5 -18t18.5 -45v-313q0 -26 -18 -44.5t-45 -18.5h-313q-26 0 -44.5 18t-18.5 45v313zM575 258q0 26 18 44.5t45 18.5h313q26 0 44.5 -18t18.5 -45v-313q0 -26 -18 -44.5t-45 -18.5h-313
q-26 0 -44.5 18t-18.5 45v313z" />
    <glyph glyph-name="search-list" unicode="&#xe604;" 
d="M953 88l-143 186q82 79 82 192q0 109 -77.5 187t-187 78t-187 -78t-77.5 -187.5t77.5 -187t187.5 -77.5q69 0 129 34l143 -187q10 -13 26 -13q11 0 20 7q11 8 13 21.5t-6 24.5v0zM429 466q0 82 58 140t140.5 58t140.5 -58t58 -140t-58 -140.5t-140.5 -58.5t-140.5 58.5
t-58 140.5v0zM296 599h-198q-14 0 -23.5 9.5t-9.5 23.5t9.5 23.5t23.5 9.5h198q14 0 23.5 -9.5t9.5 -23.5t-9.5 -23.5t-23.5 -9.5v0zM230 334h-132q-14 0 -23.5 9.5t-9.5 23.5t9.5 23.5t23.5 9.5h132q14 0 23.5 -9.5t9.5 -23.5t-9.5 -23.5t-23.5 -9.5v0zM462 102h-364
q-14 0 -23.5 10t-9.5 23.5t9.5 23.5t23.5 10h364q14 0 23.5 -10t9.5 -23.5t-9.5 -23.5t-23.5 -10v0zM462 102z" />
    <glyph glyph-name="triangle-up" unicode="&#xe606;" 
d="M0 83l512 602l512 -602h-1024z" />
    <glyph glyph-name="right" unicode="&#xe620;" 
d="M344 -8q-13 0 -22.5 9.5t-9.5 22.5t9 23l338 337l-338 337q-9 10 -9 23t9.5 22.5t22.5 9.5t22 -9l360 -360q10 -10 10 -23t-10 -23l-360 -360q-9 -9 -22 -9z" />
    <glyph glyph-name="up" unicode="&#xe63c;" 
d="M904 204q0 -13 -9.5 -22.5t-22.5 -9.5t-23 9l-337 338l-337 -338q-10 -9 -23 -9t-22.5 9.5t-9.5 22.5t9 23l360 360q10 9 23 9t23 -9l360 -360q9 -10 9 -23z" />
    <glyph glyph-name="bottom" unicode="&#xe63d;" 
d="M904 564q0 13 -9.5 22.5t-22.5 9.5t-23 -9l-337 -338l-337 338q-10 9 -23 9t-22.5 -9.5t-9.5 -22.5t9 -23l360 -360q10 -9 23 -9t23 9l360 360q9 10 9 23z" />
    <glyph glyph-name="left" unicode="&#xe63e;" 
d="M694.5 -8q13.5 0 23 9.5t9.5 22.5t-10 23l-337 337l337 337q10 10 10 23t-9.5 22.5t-23 9.5t-22.5 -9l-360 -360q-9 -10 -9 -23t9 -23l360 -360q9 -9 22.5 -9z" />
    <glyph glyph-name="zan1" unicode="&#xe60b;" 
d="M94 489v0q-16 0 -27.5 -11.5t-11.5 -27.5v-477v-1q0 -16 11.5 -27.5t27.5 -11.5l1 0.5l1 0.5h110v555h-110h-1h-1v0zM972 473q-16 24 -40.5 39t-53.5 16q-3 1 -9 1h-214q23 64 23 137q0 48 -11 94q-11 47 -52.5 76.5t-81.5 7.5q-3 -7 -6 -31.5t-7.5 -54.5t-13 -66
t-26 -69t-42 -61t-65 -44.5t-91.5 -16.5v-567h513h1q33 0 61 18q25 17 39 44l0.5 1.5l0.5 1.5q4 6 6 12l84 378q2 6 1 11v3v2v7q0 33 -17 61h1z" />
    <glyph glyph-name="point-sm" unicode="&#xe764;" 
d="M293 381q0 88 63 151t152 63q88 0 151 -62.5t63 -150.5q0 -90 -62.5 -153t-153.5 -63q-88 0 -150.5 63t-62.5 152z" />
    <glyph glyph-name="control-left" unicode="&#xe765;" 
d="M491 -76v168l-305 290l305 290v169l-470 -459z" />
    <glyph glyph-name="down-circle" unicode="&#xe766;" 
d="M835.5 65.5q64.5 64.5 99 148t34.5 174.5t-34.5 174.5t-99 148t-147.5 99t-174.5 34.5t-174.5 -34.5t-148 -99t-99.5 -148t-34.5 -174.5t34.5 -174.5t99 -148t148 -99t175 -34.5t174.5 34.5t147.5 99zM105 388q0 111 55 205t149 148.5t204.5 54.5t204.5 -54.5
t148.5 -148.5t54.5 -205t-54.5 -205t-148.5 -148.5t-204.5 -54.5t-204.5 54.5t-149 148.5t-55 205zM300 462q0 8 6 14t14 6t14 -6l184 -184l183 184q6 6 14 6t14 -6t6 -14t-6 -14l-198 -198q-5 -6 -13.5 -6t-13.5 6l-198 198q-6 6 -6 14v0z" />
    <glyph glyph-name="up-circle" unicode="&#xe767;" 
d="M186.5 703.5q-64.5 -64.5 -99 -148t-34.5 -175t34.5 -174.5t99 -147.5t147.5 -99t174.5 -34.5t175 34.5t148 99t99 147.5t34.5 174.5t-34.5 175t-99 148t-148 99t-175 34.5t-174.5 -34.5t-147.5 -99zM917 380.5q0 -110.5 -54.5 -204.5t-148.5 -148.5t-205 -54.5
t-205 54.5t-148.5 148.5t-54.5 204.5t54.5 204.5t148.5 149t205 55t205 -55t148.5 -149t54.5 -204.5zM722 307q0 -8 -5.5 -14t-14 -6t-14.5 6l-183 184l-184 -184q-6 -6 -14 -6t-14 6t-6 14t6 14l198 198q6 5 14 5t14 -5l197 -198q6 -6 6 -14v0z" />
    <glyph glyph-name="warn-circle" unicode="&#xe62e;" 
d="M518 -128q102 0 195.5 40.5t161.5 109.5t108.5 165.5t40.5 202.5q0 102 -40.5 195.5t-108.5 161.5t-161.5 108.5t-195.5 40.5q-106 0 -202.5 -40.5t-165.5 -108.5t-109.5 -161.5t-40.5 -195.5q0 -106 40.5 -202t110 -165.5t165.5 -110t202 -40.5zM539 147h-54h-1
q-4 0 -7 3t-3 8v0l12 332q0 5 6 5v0h40q6 0 6 -5l12 -332v0q0 -5 -3 -8t-7 -3h-1zM512 621q16 0 27.5 -11.5t11.5 -27.5t-11.5 -27t-27.5 -11t-27.5 11t-11.5 27t11.5 27.5t27.5 11.5z" />
    <glyph glyph-name="left-arrow2" unicode="&#xe768;" horiz-adv-x="1000" 
d="M417 729l-312 -313q-18 -18 -18 -44t18 -44l312 -313q19 -18 44.5 -18t44 18.5t18.5 44t-18 44.5l-206 206h599q26 0 44.5 18t18.5 44t-18.5 44.5t-44.5 18.5h-599l206 205q18 19 18 44.5t-18.5 44t-44 18.5t-44.5 -18z" />
    <glyph glyph-name="left-arrow" unicode="&#xe76a;" 
d="M832 352h-469v92h469v-92zM193 398l171 176v-353z" />
    <glyph glyph-name="right-small" unicode="&#xe76b;" 
d="M398 118q-9 0 -15.5 6.5t-6.5 15.5t6 15l230 229l-230 229q-6 6 -6 15t6.5 15.5t15.5 6.5t15 -6l245 -245q6 -6 6 -15t-6 -15l-245 -245q-6 -6 -15 -6z" />
  </font>
</defs>
</svg>
